<!DOCTYPE svg PUBLIC "-//W3C//DTD SVG 1.1//EN" "http://www.w3.org/Graphics/SVG/1.1/DTD/svg11.dtd">
<!-- Uploaded to: SVG Repo, www.svgrepo.com, Transformed by: SVG Repo Mixer Tools -->
<svg fill="#333" height="800px" width="800px" version="1.1" id="Capa_1" xmlns="http://www.w3.org/2000/svg" xmlns:xlink="http://www.w3.org/1999/xlink" viewBox="0 0 181.465 181.465" xml:space="preserve" stroke="#333" stroke-width="0.9073249999999999">
<g id="SVGRepo_bgCarrier" stroke-width="0"/>
<g id="SVGRepo_tracerCarrier" stroke-linecap="round" stroke-linejoin="round"/>
<g id="SVGRepo_iconCarrier"> <path d="M179.465,164.352H2c-1.104,0-2-0.896-2-2s0.896-2,2-2h10.15V72.919l-9.088,5.694c-0.937,0.585-2.17,0.303-2.757-0.633 c-0.586-0.936-0.303-2.17,0.633-2.757l29.99-18.79v-37.32c0-1.104,0.896-2,2-2h23.206c1.104,0,2,0.896,2,2v20.273l31.5-19.736 c0.085-0.056,0.174-0.105,0.266-0.147c0.268-0.123,0.567-0.228,0.833-0.182c0,0,0.001,0,0.002,0c0.279,0,0.56,0.059,0.825,0.179 c0.095,0.042,0.186,0.093,0.273,0.15l88.695,55.572c0.936,0.586,1.219,1.821,0.633,2.757c-0.587,0.936-1.821,1.22-2.757,0.633 l-9.088-5.694v87.433h10.15c1.104,0,2,0.896,2,2S180.57,164.352,179.465,164.352z M16.151,160.352h149.164V71.396 c0-0.309,0.07-0.601,0.194-0.861L90.733,23.683L15.956,70.534c0.125,0.261,0.194,0.553,0.194,0.861V160.352z M34.928,21.114v32.813 l19.206-12.034v-20.78H34.928z M92.492,147.888c-0.938,0-1.774-0.662-1.961-1.616c-0.075-0.383-0.753-3.882-1.533-8.97 c-0.937-3.563-2.442-7.7-4.848-11.353c-2.639-4.006-5.343-6.451-6.5-7.402c-3.87,1.491-18.241,5.848-29.254-6.446 c-12.961-14.467-2.43-39.097-1.976-40.139c0.292-0.669,0.926-1.125,1.653-1.191c0.735-0.067,1.433,0.271,1.84,0.876 c0.046,0.069,4.694,6.923,9.564,9.055c0.941,0.412,2.108,0.848,3.344,1.31c6.144,2.296,14.559,5.441,18.192,13.282 c3.456,7.462,0.675,16.547-0.739,20.233c1.395,1.158,4.207,3.753,6.968,7.849c-0.648-6.752-1.001-13.934-0.528-19.937 c1.241-15.767,3.594-31.817,17.239-39.67c5.975-3.438,12.201-3.471,17.08-0.088c4.497,3.118,7.077,8.694,6.272,13.562 c-0.744,4.504-3.821,8.224-8.029,9.708c-3.77,1.33-7.712,0.614-10.545-1.915c-3.873-3.458-3.789-7.063-3.395-8.905 c0.538-2.51,2.269-4.63,4.307-5.275c1.053-0.333,2.177,0.25,2.51,1.303c0.333,1.053-0.25,2.177-1.303,2.51 c-0.48,0.152-1.322,0.988-1.603,2.3c-0.26,1.212-0.098,3.079,2.147,5.083c1.728,1.542,4.175,1.963,6.551,1.126 c2.833-0.999,4.907-3.523,5.413-6.588c0.552-3.343-1.384-7.389-4.604-9.622c-3.61-2.503-8.158-2.407-12.806,0.268 c-11.968,6.888-14.041,21.204-15.247,36.517c-0.781,9.927,0.854,23.614,2.207,32.57c0.485-1.141,1.064-2.278,1.753-3.342 c2.581-3.987,6.391-6.571,8.269-7.679c-0.011-2.661,0.396-10.476,5.253-15.063c4.841-4.572,11.947-4.413,16.646-4.306 c0.977,0.022,1.9,0.042,2.653,0.019c3.182-0.103,7.479-2.588,8.866-3.538c0.604-0.413,1.384-0.463,2.035-0.133 c0.651,0.331,1.071,0.991,1.094,1.721c0.027,0.861,0.51,21.164-12.769,27.744c-10.226,5.066-18.544-0.293-21.78-2.975 c-1.549,0.922-4.793,3.116-6.909,6.384c-2.786,4.303-3.479,10.395-3.531,10.888c-0.068,0.874-0.708,1.63-1.61,1.807 C92.748,147.876,92.619,147.888,92.492,147.888z M108.044,126.188c2.835,2.224,9.129,5.819,16.888,1.975 c8.028-3.978,9.958-14.904,10.413-20.553c-2.151,1.087-5.055,2.255-7.733,2.341c-0.861,0.028-1.839,0.006-2.872-0.018 c-4.29-0.096-10.164-0.229-13.81,3.215c-2.433,2.297-3.396,5.915-3.77,8.723c2.229-1.582,5.334-3.566,8.768-5.123 c6.662-3.02,11.562-3.646,11.767-3.671c1.098-0.132,2.094,0.646,2.229,1.742c0.134,1.095-0.644,2.092-1.739,2.228l0,0 c-0.044,0.005-4.542,0.596-10.605,3.344C113.633,122.181,110.078,124.652,108.044,126.188z M48.869,76.87 c-2.272,6.875-6.182,22.866,2.506,32.563l0,0c7.524,8.398,16.896,7.597,21.93,6.319c-4.09-2.806-10.84-7.687-14.347-11.599 c-5.284-5.893-6.903-9.595-8.005-12.602c-0.38-1.037,0.152-2.186,1.189-2.566c1.034-0.38,2.186,0.152,2.566,1.189 c0.975,2.658,2.417,5.943,7.228,11.309c3.581,3.994,11.227,9.352,14.886,11.819c1.25-3.544,3.153-10.73,0.561-16.327 c-2.942-6.351-10.467-9.163-15.962-11.217c-1.288-0.481-2.505-0.936-3.547-1.392C54.264,82.789,50.958,79.378,48.869,76.87z"/> </g>
</svg>