<!DOCTYPE svg PUBLIC "-//W3C//DTD SVG 1.1//EN" "http://www.w3.org/Graphics/SVG/1.1/DTD/svg11.dtd">
<!-- Uploaded to: SVG Repo, www.svgrepo.com, Transformed by: SVG Repo Mixer Tools -->
<svg fill="#333" height="800px" width="800px" version="1.1" id="Capa_1" xmlns="http://www.w3.org/2000/svg" xmlns:xlink="http://www.w3.org/1999/xlink" viewBox="0 0 207.216 207.216" xml:space="preserve" stroke="#333" stroke-width="1.0360800000000001">
<g id="SVGRepo_bgCarrier" stroke-width="0"/>
<g id="SVGRepo_tracerCarrier" stroke-linecap="round" stroke-linejoin="round"/>
<g id="SVGRepo_iconCarrier"> <path d="M190.885,163.746H54.26c-0.654,0-1.267-0.32-1.641-0.856c-0.374-0.537-0.462-1.223-0.235-1.836l9.273-25.128L25.059,99.328 c-7.301,3.84-16.165,4.233-23.893,0.686c-0.595-0.272-1.019-0.819-1.135-1.464c-0.115-0.645,0.092-1.305,0.555-1.768l33.172-33.171 c0.463-0.463,1.121-0.667,1.768-0.555c0.645,0.116,1.191,0.54,1.465,1.135c3.632,7.92,3.132,17.034-0.98,24.435l31.483,31.484 l22.972-62.244c0.29-0.786,1.038-1.308,1.876-1.308h16.758v-7.842L104.27,47.4c-1.065-0.291-1.693-1.39-1.403-2.456 c0.29-1.065,1.386-1.692,2.456-1.403l48.007,13.088c0.499,0.137,0.902,0.45,1.16,0.855c0.001,0.001,0.002,0.003,0.003,0.004 l0.001,0.001c0.027,0.044,0.054,0.089,0.078,0.135l0,0c0,0.001,0.003,0.004,0.003,0.007c0.001,0.001,0.001,0.002,0.002,0.003 c0.043,0.083,0.081,0.169,0.112,0.258l5.502,14.908l2.529-1.12c15.862-7.022,34.553,0.138,41.665,15.961 c7.089,15.773,0.434,33.996-15.152,41.486l-7.011,3.37l10.539,28.557c0.227,0.613,0.139,1.299-0.235,1.836 C192.151,163.425,191.539,163.746,190.885,163.746z M57.13,159.746h130.885l-36.731-99.528l-38.185-10.41v6.751h13.378 c1.104,0,2,0.896,2,2s-0.896,2-2,2H93.734l-23.517,63.723c-0.014,0.051-0.03,0.1-0.049,0.149l-4.312,11.684 c-0.019,0.05-0.039,0.1-0.061,0.147L57.13,159.746z M28.818,97.431l34.363,34.362l2.787-7.552l-31.98-31.98L28.818,97.431z M161.578,76.559l19.253,52.168l6.669-3.206c13.615-6.543,19.429-22.462,13.236-36.24c-6.212-13.822-22.539-20.08-36.397-13.943 L161.578,76.559z M5.592,97.432c8.067,2.5,17.046,0.368,23.115-5.701c6.068-6.069,8.198-15.05,5.701-23.114L5.592,97.432z M122.572,141.574c-3.703,0-7.161-1.655-9.483-4.484c-3.642,0.357-7.258-0.917-9.876-3.535s-3.894-6.233-3.535-9.876 c-2.829-2.322-4.484-5.78-4.484-9.483c0-3.702,1.655-7.16,4.484-9.482c-0.358-3.643,0.917-7.258,3.535-9.876s6.23-3.889,9.876-3.535 c2.322-2.829,5.78-4.484,9.483-4.484s7.16,1.655,9.483,4.484c3.643-0.352,7.257,0.917,9.875,3.535 c2.618,2.617,3.894,6.232,3.535,9.876c2.829,2.322,4.484,5.779,4.484,9.482s-1.655,7.161-4.484,9.483 c0.358,3.644-0.917,7.259-3.535,9.876c-2.618,2.619-6.233,3.89-9.876,3.535C129.732,139.918,126.274,141.574,122.572,141.574z M113.982,132.933c0.664,0,1.296,0.331,1.671,0.901c1.54,2.341,4.127,3.739,6.919,3.739c2.791,0,5.378-1.398,6.919-3.74 c0.45-0.685,1.271-1.023,2.075-0.859c2.744,0.566,5.562-0.274,7.536-2.248c1.975-1.974,2.814-4.791,2.248-7.537 c-0.165-0.803,0.176-1.625,0.86-2.075c2.342-1.54,3.739-4.126,3.739-6.919c0-2.792-1.398-5.379-3.74-6.919 c-0.685-0.45-1.024-1.272-0.859-2.075c0.566-2.745-0.273-5.563-2.248-7.536c-1.974-1.974-4.795-2.813-7.536-2.248 c-0.805,0.162-1.625-0.176-2.075-0.859c-1.54-2.342-4.127-3.74-6.919-3.74c-2.793,0-5.379,1.397-6.919,3.739 c-0.449,0.684-1.273,1.022-2.075,0.86c-2.745-0.566-5.563,0.274-7.537,2.248c-1.975,1.975-2.814,4.792-2.248,7.536 c0.165,0.803-0.175,1.625-0.859,2.075c-2.342,1.541-3.74,4.128-3.74,6.919c0,2.792,1.398,5.379,3.739,6.919 c0.685,0.45,1.025,1.272,0.86,2.075c-0.566,2.745,0.273,5.563,2.248,7.537c1.975,1.974,4.793,2.814,7.537,2.248 C113.713,132.947,113.849,132.933,113.982,132.933z M122.572,127.555c-7.367,0-13.36-5.993-13.36-13.36s5.993-13.36,13.36-13.36 s13.36,5.993,13.36,13.36S129.939,127.555,122.572,127.555z M122.572,104.834c-5.161,0-9.36,4.199-9.36,9.36s4.199,9.36,9.36,9.36 s9.36-4.199,9.36-9.36S127.733,104.834,122.572,104.834z"/> </g>
</svg>