<!DOCTYPE svg PUBLIC "-//W3C//DTD SVG 1.1//EN" "http://www.w3.org/Graphics/SVG/1.1/DTD/svg11.dtd">
<!-- Uploaded to: SVG Repo, www.svgrepo.com, Transformed by: SVG Repo Mixer Tools -->
<svg fill="#333" height="800px" width="800px" version="1.1" id="Capa_1" xmlns="http://www.w3.org/2000/svg" xmlns:xlink="http://www.w3.org/1999/xlink" viewBox="0 0 190.763 190.763" xml:space="preserve" stroke="#333" stroke-width="0.953815">
<g id="SVGRepo_bgCarrier" stroke-width="0"/>
<g id="SVGRepo_tracerCarrier" stroke-linecap="round" stroke-linejoin="round"/>
<g id="SVGRepo_iconCarrier"> <path d="M168.694,190.763H21.584c-0.804,0-1.53-0.481-1.843-1.223c-0.313-0.741-0.151-1.597,0.41-2.173 c16.173-16.599,17.758-15.412,19.153-14.365c0.737,0.553,4.343,1.957,6.861,1.473c1.057-0.203,1.441-0.656,1.638-0.979 c2.353-3.855,9.596-10.051,13.902-8.206c1.493,0.49,7.577-2.252,9.098-3.6c0.253-0.903,1.263-2.384,5.284-4.578 c0.251-0.137,0.529-0.218,0.814-0.239c2.247-0.164,4.759-0.744,5.27-1.219c0.972-1.302,4.511-4.119,7.302-6.245 c1.063-0.81,2.558-0.748,3.555,0.147c0.104,0.094,0.213,0.179,0.325,0.257V97.392c0-11.56-4.42-22.439-12.462-30.709 c-2.353,2.093-7.353,5.622-14.576,5.94c-8.896,0.395-18.153-4.155-27.512-13.514C13.452,33.759,17.121,3.285,17.289,2 c0.118-0.898,0.825-1.605,1.723-1.723c1.286-0.169,31.759-3.836,57.109,21.515c9.36,9.359,13.907,18.616,13.514,27.512 c-0.317,7.196-3.82,12.185-5.917,14.549c5.494,5.636,9.444,12.388,11.635,19.739c2.195-7.364,6.155-14.126,11.664-19.769 c-2.099-2.376-5.574-7.353-5.89-14.52c-0.393-8.896,4.155-18.152,13.515-27.512c25.352-25.353,55.823-21.685,57.108-21.515 c0.898,0.118,1.605,0.825,1.724,1.723c0.168,1.285,3.836,31.758-21.516,57.109c-9.359,9.359-18.607,13.915-27.511,13.514 c-7.255-0.32-12.266-3.877-14.606-5.967c-8.058,8.273-12.488,19.164-12.488,30.735v52.078c0.995-0.81,2.424-0.841,3.45-0.059 c2.79,2.125,6.329,4.94,7.342,6.291c0.472,0.428,2.983,1.009,5.23,1.172c0.285,0.021,0.563,0.102,0.814,0.239 c4.021,2.193,5.03,3.675,5.284,4.578c1.52,1.348,7.605,4.086,9.11,3.595c4.296-1.838,11.538,4.355,13.889,8.21 c0.197,0.323,0.582,0.776,1.639,0.979c2.52,0.484,6.124-0.919,6.861-1.473c1.398-1.047,2.982-2.231,19.153,14.365 c0.562,0.576,0.723,1.432,0.41,2.173C170.225,190.282,169.499,190.763,168.694,190.763z M26.393,186.763h137.492 c-4.695-4.629-9.489-8.985-11.327-10.049c-2.028,1.101-5.957,2.312-9.199,1.689c-1.909-0.366-3.396-1.343-4.299-2.824 c-2.388-3.913-7.741-7.087-8.912-6.612c-3.492,1.497-10.52-2.358-12.21-3.473c-1.073-0.708-2.077-1.509-2.321-2.582 c-0.421-0.458-1.708-1.358-2.979-2.085c-2.126-0.188-6.244-0.795-7.692-2.726c-0.415-0.553-2.367-2.279-5.825-4.942 c-2.405,1.621-5.555,1.621-7.963,0c-3.458,2.664-5.411,4.39-5.825,4.942c-1.448,1.93-5.566,2.538-7.692,2.726 c-1.271,0.727-2.557,1.627-2.978,2.085c-0.245,1.073-1.249,1.875-2.323,2.583c-1.69,1.114-8.716,4.97-12.209,3.472 c-1.169-0.481-6.524,2.699-8.912,6.612c-0.904,1.481-2.39,2.458-4.299,2.824c-3.235,0.624-7.17-0.588-9.2-1.69 C35.883,177.778,31.088,182.134,26.393,186.763z M21.129,4.114c-0.357,6.479-0.221,31.443,20.503,52.167 c8.533,8.533,16.772,12.678,24.507,12.346c8.37-0.369,13.165-5.982,13.212-6.039c0.076-0.09,0.159-0.173,0.249-0.249 c0.051-0.044,5.704-4.943,6.042-13.284c0.311-7.708-3.844-15.93-12.35-24.436C52.523,3.85,27.608,3.742,21.129,4.114z M166.829,4.044c-9.158,0-30.933,2.151-49.358,20.576c-8.506,8.506-12.661,16.728-12.35,24.436 c0.337,8.341,5.989,13.24,6.047,13.289c0.086,0.073,0.171,0.158,0.243,0.244c0.044,0.051,4.943,5.705,13.284,6.042 c7.72,0.316,15.931-3.844,24.436-12.349c20.771-20.772,20.875-45.69,20.507-52.164C168.919,4.078,167.972,4.044,166.829,4.044z M114.857,59.345c-0.343,0-0.69-0.088-1.009-0.274c-0.953-0.558-1.273-1.783-0.715-2.736c0.119-0.205,1.528-2.597,4-6.163 l-1.265-10.3c-0.135-1.096,0.646-2.094,1.742-2.229c1.082-0.129,2.094,0.645,2.229,1.742l0.739,6.028 c2.416-3.196,5.357-6.81,8.735-10.438c0.951-1.021,1.99-2.071,3.09-3.132l-1.801-10.711c-0.183-1.089,0.552-2.121,1.642-2.304 c1.078-0.182,2.12,0.551,2.304,1.641l1.365,8.123c9.927-8.875,22.34-17.618,22.986-18.072c0.905-0.635,2.151-0.416,2.786,0.487 c0.635,0.904,0.417,2.151-0.487,2.786c-0.116,0.082-7.137,5.026-14.781,11.176l7.66,2.488c1.05,0.341,1.625,1.47,1.284,2.52 c-0.341,1.05-1.463,1.626-2.521,1.285l-10.096-3.28c-2.361,1.979-4.688,4.017-6.795,6.008c-0.018,0.017-0.035,0.033-0.053,0.049 c-1.32,1.249-2.554,2.478-3.656,3.662c-1.66,1.784-3.217,3.572-4.656,5.31l15.244,4.103c1.066,0.287,1.699,1.384,1.412,2.451 c-0.287,1.066-1.383,1.699-2.451,1.411l-16.935-4.558c-5.158,6.656-8.229,11.865-8.271,11.938 C116.213,58.99,115.545,59.345,114.857,59.345z M75.906,59.344c-0.687,0-1.355-0.354-1.728-0.989 c-0.043-0.073-3.119-5.288-8.273-11.938l-16.933,4.557c-1.068,0.288-2.164-0.345-2.451-1.411c-0.287-1.067,0.345-2.164,1.411-2.451 l15.244-4.103c-1.439-1.738-2.995-3.526-4.655-5.31c-1.101-1.183-2.334-2.412-3.653-3.659c-0.021-0.019-0.041-0.037-0.06-0.057 c-2.106-1.989-4.431-4.026-6.791-6.004l-10.096,3.28c-1.05,0.34-2.178-0.233-2.52-1.285c-0.341-1.05,0.234-2.179,1.285-2.52 l7.66-2.488c-7.645-6.15-14.665-11.094-14.782-11.176c-0.904-0.635-1.122-1.882-0.487-2.786c0.635-0.903,1.882-1.123,2.786-0.487 c0.646,0.454,13.06,9.196,22.987,18.072l1.366-8.123c0.183-1.089,1.221-1.82,2.304-1.641c1.089,0.183,1.824,1.214,1.641,2.304 l-1.801,10.711c1.1,1.061,2.139,2.111,3.09,3.132c3.378,3.628,6.319,7.242,8.735,10.438l0.74-6.028 c0.134-1.097,1.13-1.872,2.229-1.742c1.096,0.135,1.876,1.133,1.741,2.229l-1.264,10.3c2.471,3.566,3.88,5.958,4,6.163 c0.558,0.953,0.238,2.178-0.715,2.736C76.597,59.256,76.249,59.344,75.906,59.344z"/> </g>
</svg>